<svg width="213" height="37" viewBox="0 0 213 37" fill="none" xmlns="http://www.w3.org/2000/svg">
<path fill-rule="evenodd" clip-rule="evenodd" d="M0.295552 12.1162C-0.0325836 10.8468 -0.0608446 9.49149 0.253342 8.21852C0.572347 6.92603 1.31968 5.21018 3.10183 3.72451C6.12001 1.20841 9.63922 1.97154 10.2094 2.09521C15.5104 3.24476 18.4715 11.1236 19.9135 12.243C20.4541 12.6628 20.1948 11.8541 25.0407 5.39593C28.9312 0.210981 35.7387 1.52423 38.3656 4.12419C39.5583 5.30449 39.4738 5.37929 50.555 21.1933C56.106 29.1149 49.4813 34.3281 45.9967 34.9575C39.6706 36.0999 37.5982 31.721 32.6252 24.6358C31.3027 22.7516 28.4118 33.6396 21.9722 34.9381C15.4145 36.2604 13.0438 31.4886 8.58028 25.08C2.37002 16.1636 0.829164 14.1806 0.295552 12.1162Z" fill="#2AA7FF"/>
<path fill-rule="evenodd" clip-rule="evenodd" d="M62.7981 5.63728C64.2288 8.27837 64.1361 11.6337 62.5491 14.1841C61.5457 15.7966 59.7673 18.1914 56.4661 22.9623C55.9168 23.7559 55.8184 22.8103 50.6912 15.6179C50.1335 14.8358 47.3708 11.8088 48.6266 7.45754C50.3477 1.49341 59.4272 -0.585165 62.7981 5.63728Z" fill="#2AA7FF"/>
<path fill-rule="evenodd" clip-rule="evenodd" d="M55.9412 11.7234C55.5916 11.3212 55.9668 11.062 56.4647 10.5635C58.7356 8.28977 58.7399 8.29059 58.7395 8.27943C58.7383 8.24686 56.6732 8.27278 56.2671 8.26454C55.8932 8.25699 55.7482 7.90301 55.8311 7.67278C55.9685 7.29101 56.4042 7.36593 56.4566 7.36612C56.5752 7.36654 59.7594 7.36515 59.8684 7.36702C60.2364 7.37336 60.4415 7.84492 60.1743 8.12566C60.1342 8.16783 57.409 10.8924 57.3947 10.9059C57.253 11.0392 57.4918 10.9275 59.8256 10.9601C60.305 10.9667 60.4552 11.4952 60.1155 11.77C59.9924 11.8696 59.9744 11.8564 57.6358 11.8564C56.1534 11.8564 56.1282 11.8781 55.9412 11.7234Z" fill="white"/>
<path fill-rule="evenodd" clip-rule="evenodd" d="M55.2259 9.74537C55.5815 10.1531 55.2118 10.395 54.523 11.0838C53.8022 11.8045 53.7207 11.8614 53.8053 11.8594C55.0279 11.8307 55.1001 11.8859 55.1883 11.9532C55.5184 12.205 55.3211 12.7445 54.9428 12.7539C54.915 12.7546 52.6786 12.7577 52.6252 12.753C52.2625 12.7209 52.0671 12.2678 52.3603 11.9741C53.7113 10.621 53.8354 10.5213 53.7869 10.5074C53.6517 10.4684 52.6031 10.6104 52.3765 10.4041C52.0347 10.0929 52.2875 9.61935 52.6473 9.61345C52.7251 9.61219 52.9092 9.61238 54.3525 9.61238C55.0103 9.61238 55.0325 9.58536 55.2259 9.74537Z" fill="white"/>
<path fill-rule="evenodd" clip-rule="evenodd" d="M57.48 13.3463C57.8195 13.7498 57.4645 13.9823 56.7803 14.6666C56.7346 14.7122 56.6894 14.7582 56.6438 14.8039C56.6176 14.8303 56.4137 15.0043 56.4999 15.0051C56.8908 15.0091 57.563 14.8835 57.6048 15.4188C57.6421 15.8947 57.167 15.8988 57.112 15.8992C55.2493 15.9151 55.23 15.9022 55.0961 15.8122C54.9991 15.747 54.7483 15.4302 55.0714 15.1054C56.0273 14.1445 56.1036 14.1035 56.0362 14.1005C55.6239 14.0824 55.0461 14.2515 54.9192 13.7355C54.8696 13.5337 55.0261 13.2202 55.3431 13.2053C55.3744 13.2038 55.826 13.204 56.8593 13.204C57.2343 13.204 57.2869 13.1799 57.48 13.3463Z" fill="white"/>
<path d="M81.7263 30V10.12H85.9823L94.5503 25.072V10.12H98.1903V30H93.8223L85.3663 15.468V30H81.7263ZM108.586 30.336C107.093 30.336 105.796 30.0187 104.694 29.384C103.593 28.7307 102.744 27.816 102.146 26.64C101.549 25.464 101.25 24.092 101.25 22.524C101.25 20.956 101.549 19.5933 102.146 18.436C102.744 17.26 103.584 16.3453 104.666 15.692C105.768 15.0387 107.046 14.712 108.502 14.712C109.921 14.712 111.162 15.0293 112.226 15.664C113.309 16.2987 114.14 17.2133 114.718 18.408C115.297 19.6027 115.586 21.04 115.586 22.72V23.532H104.974C105.049 24.8387 105.404 25.828 106.038 26.5C106.692 27.1533 107.55 27.48 108.614 27.48C109.417 27.48 110.08 27.3027 110.602 26.948C111.144 26.5747 111.517 26.0613 111.722 25.408L115.39 25.632C114.98 27.088 114.168 28.236 112.954 29.076C111.76 29.916 110.304 30.336 108.586 30.336ZM104.974 21.124H111.89C111.816 19.9107 111.47 19.0147 110.854 18.436C110.238 17.8387 109.454 17.54 108.502 17.54C107.55 17.54 106.757 17.848 106.122 18.464C105.506 19.08 105.124 19.9667 104.974 21.124ZM122.946 30.336C121.378 30.336 120.118 29.9813 119.166 29.272C118.214 28.544 117.738 27.536 117.738 26.248C117.738 24.96 118.14 23.952 118.942 23.224C119.745 22.496 120.968 21.9733 122.61 21.656L127.566 20.676C127.566 19.612 127.324 18.8187 126.838 18.296C126.353 17.7547 125.634 17.484 124.682 17.484C123.824 17.484 123.142 17.6893 122.638 18.1C122.153 18.492 121.817 19.0613 121.63 19.808L117.99 19.64C118.289 18.0533 119.017 16.84 120.174 16C121.332 15.1413 122.834 14.712 124.682 14.712C126.81 14.712 128.416 15.2533 129.498 16.336C130.6 17.4 131.15 18.9307 131.15 20.928V26.36C131.15 26.752 131.216 27.0227 131.346 27.172C131.496 27.3213 131.71 27.396 131.99 27.396H132.466V30C132.354 30.0373 132.168 30.0653 131.906 30.084C131.664 30.1027 131.412 30.112 131.15 30.112C130.534 30.112 129.984 30.0187 129.498 29.832C129.013 29.6267 128.64 29.2813 128.378 28.796C128.117 28.292 127.986 27.6107 127.986 26.752L128.294 26.976C128.145 27.6293 127.818 28.2173 127.314 28.74C126.829 29.244 126.213 29.636 125.466 29.916C124.72 30.196 123.88 30.336 122.946 30.336ZM123.674 27.732C124.477 27.732 125.168 27.5733 125.746 27.256C126.325 26.9387 126.773 26.5 127.09 25.94C127.408 25.38 127.566 24.7173 127.566 23.952V23.112L123.702 23.896C122.9 24.064 122.321 24.316 121.966 24.652C121.63 24.9693 121.462 25.3893 121.462 25.912C121.462 26.4907 121.649 26.9387 122.022 27.256C122.414 27.5733 122.965 27.732 123.674 27.732ZM134.794 30V15.048H138.154L138.294 19.192L137.986 19.136C138.21 17.6987 138.63 16.6627 139.246 16.028C139.881 15.3747 140.739 15.048 141.822 15.048H143.194V18.128H141.794C141.029 18.128 140.394 18.24 139.89 18.464C139.386 18.688 139.003 19.0427 138.742 19.528C138.499 19.9947 138.378 20.6107 138.378 21.376V30H134.794ZM159.859 16.308L151.515 30.14H150.423L148.211 12.528C148.118 11.8187 147.912 11.352 147.595 11.128C147.278 10.8853 146.979 10.7547 146.699 10.736L146.811 10.176C147.259 10.1947 147.8 10.2133 148.435 10.232C149.07 10.2507 149.714 10.26 150.367 10.26C151.076 10.26 151.73 10.2507 152.327 10.232C152.924 10.2133 153.41 10.1947 153.783 10.176L153.671 10.736C153.074 10.7733 152.654 10.9413 152.411 11.24C152.168 11.52 152.084 12.136 152.159 13.088L153.643 26.024L152.999 26.612L159.635 15.608L159.859 16.308ZM169.659 14.376C170.163 13.4053 170.424 12.668 170.443 12.164C170.462 11.66 170.275 11.3053 169.883 11.1C169.491 10.8947 168.922 10.7733 168.175 10.736L168.315 10.176C168.595 10.1947 168.94 10.2133 169.351 10.232C169.78 10.232 170.21 10.2413 170.639 10.26C171.087 10.26 171.479 10.26 171.815 10.26C172.263 10.26 172.646 10.2507 172.963 10.232C173.299 10.2133 173.616 10.1947 173.915 10.176L173.775 10.736C173.439 10.8293 173.103 10.96 172.767 11.128C172.45 11.296 172.114 11.5667 171.759 11.94C171.423 12.3133 171.078 12.8453 170.723 13.536L162.015 30.14H160.923L158.375 12.528C158.282 11.8373 158.114 11.3707 157.871 11.128C157.628 10.8853 157.386 10.7547 157.143 10.736L157.255 10.176C157.666 10.1947 158.16 10.2133 158.739 10.232C159.336 10.2507 159.934 10.26 160.531 10.26C161.371 10.26 162.146 10.2507 162.855 10.232C163.583 10.2133 164.171 10.1947 164.619 10.176L164.507 10.736C163.574 10.7733 162.948 10.932 162.631 11.212C162.314 11.492 162.211 12.1173 162.323 13.088L164.087 25.632L163.443 26.192L169.659 14.376ZM173.819 29.104C174.155 29.104 174.537 28.908 174.967 28.516C175.396 28.1053 175.835 27.536 176.283 26.808C176.731 26.08 177.16 25.212 177.571 24.204C177.981 23.196 178.336 22.0947 178.635 20.9L178.047 23.924C177.505 25.5107 176.927 26.78 176.311 27.732C175.713 28.684 175.079 29.3653 174.407 29.776C173.753 30.1867 173.072 30.392 172.363 30.392C171.355 30.392 170.608 30.084 170.123 29.468C169.637 28.8333 169.395 27.9933 169.395 26.948C169.395 25.9773 169.553 24.96 169.871 23.896C170.188 22.8133 170.627 21.7587 171.187 20.732C171.765 19.6867 172.419 18.7533 173.147 17.932C173.875 17.092 174.649 16.42 175.471 15.916C176.292 15.412 177.113 15.16 177.935 15.16C178.569 15.16 179.055 15.4307 179.391 15.972C179.727 16.4947 179.811 17.2973 179.643 18.38L179.335 18.548C179.465 17.764 179.428 17.148 179.223 16.7C179.036 16.252 178.719 16.028 178.271 16.028C177.841 16.028 177.384 16.252 176.899 16.7C176.432 17.148 175.965 17.7547 175.499 18.52C175.032 19.2853 174.603 20.1533 174.211 21.124C173.837 22.0947 173.539 23.1027 173.315 24.148C173.091 25.1933 172.979 26.2107 172.979 27.2C172.979 27.8907 173.044 28.3853 173.175 28.684C173.324 28.964 173.539 29.104 173.819 29.104ZM180.119 15.552C180.791 15.5333 181.416 15.496 181.995 15.44C182.592 15.384 183.161 15.2907 183.703 15.16L180.091 27.592C180.016 27.816 179.96 28.0493 179.923 28.292C179.904 28.516 179.923 28.712 179.979 28.88C180.053 29.0293 180.212 29.104 180.455 29.104C180.753 29.104 181.061 28.9453 181.379 28.628C181.696 28.3107 182.023 27.6667 182.359 26.696L182.779 25.436H183.311L182.611 27.48C182.349 28.2453 182.023 28.8427 181.631 29.272C181.239 29.6827 180.819 29.972 180.371 30.14C179.941 30.308 179.512 30.392 179.083 30.392C178.187 30.392 177.552 30.112 177.179 29.552C176.936 29.1413 176.843 28.6373 176.899 28.04C176.955 27.4427 177.076 26.7987 177.263 26.108L180.119 15.552ZM187.647 30H184.203L189.747 11.324C189.934 10.6893 189.906 10.2227 189.663 9.924C189.439 9.62533 188.87 9.476 187.955 9.476L188.151 8.888C189.383 8.86933 190.475 8.76667 191.427 8.58C192.398 8.37467 193.312 8.09467 194.171 7.74L187.647 30ZM195.095 27.984C195.02 28.4133 195.02 28.712 195.095 28.88C195.17 29.048 195.328 29.132 195.571 29.132C195.87 29.132 196.168 28.9733 196.467 28.656C196.766 28.32 197.083 27.676 197.419 26.724L197.839 25.464H198.371L197.699 27.508C197.438 28.2733 197.102 28.8613 196.691 29.272C196.299 29.6827 195.86 29.972 195.375 30.14C194.89 30.308 194.404 30.392 193.919 30.392C193.098 30.392 192.491 30.14 192.099 29.636C191.707 29.132 191.623 28.3667 191.847 27.34L192.351 25.1C192.594 24.0733 192.519 23.3267 192.127 22.86C191.735 22.3933 190.886 22.104 189.579 21.992V21.88C190.363 21.824 191.147 21.824 191.931 21.88C192.715 21.936 193.415 22.104 194.031 22.384C194.647 22.6453 195.104 23.0373 195.403 23.56C195.702 24.0827 195.758 24.7733 195.571 25.632L195.095 27.984ZM196.803 15.72C196.56 15.72 196.346 15.7573 196.159 15.832C195.991 15.9067 195.823 16.0093 195.655 16.14C195.319 16.42 195.039 16.8027 194.815 17.288C194.591 17.7547 194.367 18.2587 194.143 18.8C193.938 19.3413 193.667 19.8547 193.331 20.34C193.014 20.8253 192.584 21.2267 192.043 21.544C191.502 21.8427 190.792 21.9827 189.915 21.964L189.635 21.992L189.691 21.684C190.55 21.628 191.231 21.4413 191.735 21.124C192.258 20.8067 192.668 20.4147 192.967 19.948C193.266 19.4627 193.508 18.9587 193.695 18.436C193.9 17.9133 194.115 17.4187 194.339 16.952C194.563 16.4853 194.862 16.1027 195.235 15.804C195.552 15.5427 195.86 15.3747 196.159 15.3C196.458 15.2067 196.728 15.16 196.971 15.16C197.792 15.16 198.38 15.384 198.735 15.832C199.09 16.28 199.258 16.812 199.239 17.428C199.239 17.8013 199.155 18.156 198.987 18.492C198.819 18.828 198.576 19.108 198.259 19.332C197.942 19.5373 197.568 19.64 197.139 19.64C196.598 19.64 196.196 19.4907 195.935 19.192C195.692 18.8747 195.571 18.52 195.571 18.128C195.59 17.68 195.748 17.26 196.047 16.868C196.364 16.4573 196.719 16.1213 197.111 15.86C197.074 15.8227 197.027 15.7947 196.971 15.776C196.915 15.7387 196.859 15.72 196.803 15.72ZM202.964 23.84C203.841 23.504 204.644 23.1587 205.372 22.804C206.119 22.4307 206.744 22.0387 207.248 21.628C207.939 21.012 208.499 20.2933 208.928 19.472C209.357 18.632 209.572 17.7173 209.572 16.728C209.572 16.2987 209.535 16.0187 209.46 15.888C209.385 15.7573 209.273 15.692 209.124 15.692C208.695 15.692 208.228 15.8973 207.724 16.308C207.22 16.7187 206.725 17.288 206.24 18.016C205.755 18.7253 205.307 19.528 204.896 20.424C204.504 21.32 204.187 22.2627 203.944 23.252C203.701 24.2413 203.58 25.2213 203.58 26.192C203.58 27.1813 203.767 27.8813 204.14 28.292C204.532 28.684 205.045 28.88 205.68 28.88C206.221 28.88 206.865 28.7027 207.612 28.348C208.359 27.9933 209.096 27.3493 209.824 26.416L210.272 26.64C209.899 27.256 209.404 27.8533 208.788 28.432C208.172 29.0107 207.463 29.4867 206.66 29.86C205.876 30.2147 205.008 30.392 204.056 30.392C203.272 30.392 202.563 30.2427 201.928 29.944C201.293 29.6453 200.799 29.2067 200.444 28.628C200.089 28.0307 199.912 27.3027 199.912 26.444C199.912 25.5293 200.071 24.5587 200.388 23.532C200.705 22.4867 201.153 21.4693 201.732 20.48C202.329 19.4907 203.029 18.5947 203.832 17.792C204.653 16.9893 205.559 16.3547 206.548 15.888C207.537 15.4027 208.601 15.16 209.74 15.16C210.487 15.16 211.112 15.3373 211.616 15.692C212.12 16.028 212.372 16.5507 212.372 17.26C212.372 17.988 212.167 18.6693 211.756 19.304C211.345 19.9387 210.785 20.5173 210.076 21.04C209.385 21.5627 208.62 22.0293 207.78 22.44C206.959 22.8507 206.128 23.2053 205.288 23.504C204.448 23.8027 203.664 24.0453 202.936 24.232L202.964 23.84Z" fill="black"/>
</svg>
