<svg width="1623" height="281" viewBox="0 0 1623 281" fill="none" xmlns="http://www.w3.org/2000/svg">
<path d="M0 276.137V29.5241H52.8719L159.311 215.005V29.5241H204.531V276.137H150.267L45.2194 95.8665V276.137H0Z" fill="black"/>
<path d="M0 276.137V29.5241H52.8719L159.311 215.005V29.5241H204.531V276.137H150.267L45.2194 95.8665V276.137H0Z" fill="url(#paint0_linear_72_12328)"/>
<path d="M333.678 280.305C315.126 280.305 299.009 276.369 285.328 268.496C271.646 260.391 261.095 249.044 253.674 234.456C246.253 219.868 242.543 202.848 242.543 183.397C242.543 163.946 246.253 147.042 253.674 132.685C261.095 118.096 271.53 106.75 284.98 98.6452C298.662 90.5406 314.546 86.4883 332.634 86.4883C350.258 86.4883 365.679 90.4248 378.897 98.2979C392.347 106.171 402.666 117.518 409.855 132.337C417.044 147.157 420.638 164.988 420.638 185.828V195.901H288.806C289.734 212.11 294.14 224.383 302.024 232.719C310.14 240.824 320.807 244.876 334.025 244.876C343.997 244.876 352.229 242.677 358.722 238.277C365.447 233.646 370.085 227.278 372.636 219.173L418.203 221.952C413.101 240.014 403.014 254.255 387.941 264.675C373.1 275.095 355.012 280.305 333.678 280.305ZM288.806 166.03H374.723C373.795 150.978 369.505 139.863 361.853 132.685C354.2 125.275 344.461 121.57 332.634 121.57C320.807 121.57 310.952 125.391 303.068 133.032C295.415 140.674 290.661 151.673 288.806 166.03Z" fill="black"/>
<path d="M333.678 280.305C315.126 280.305 299.009 276.369 285.328 268.496C271.646 260.391 261.095 249.044 253.674 234.456C246.253 219.868 242.543 202.848 242.543 183.397C242.543 163.946 246.253 147.042 253.674 132.685C261.095 118.096 271.53 106.75 284.98 98.6452C298.662 90.5406 314.546 86.4883 332.634 86.4883C350.258 86.4883 365.679 90.4248 378.897 98.2979C392.347 106.171 402.666 117.518 409.855 132.337C417.044 147.157 420.638 164.988 420.638 185.828V195.901H288.806C289.734 212.11 294.14 224.383 302.024 232.719C310.14 240.824 320.807 244.876 334.025 244.876C343.997 244.876 352.229 242.677 358.722 238.277C365.447 233.646 370.085 227.278 372.636 219.173L418.203 221.952C413.101 240.014 403.014 254.255 387.941 264.675C373.1 275.095 355.012 280.305 333.678 280.305ZM288.806 166.03H374.723C373.795 150.978 369.505 139.863 361.853 132.685C354.2 125.275 344.461 121.57 332.634 121.57C320.807 121.57 310.952 125.391 303.068 133.032C295.415 140.674 290.661 151.673 288.806 166.03Z" fill="url(#paint1_linear_72_12328)"/>
<path d="M512.074 280.305C492.595 280.305 476.942 275.906 465.115 267.106C453.289 258.075 447.375 245.571 447.375 229.593C447.375 213.616 452.361 201.111 462.333 192.08C472.304 183.049 487.493 176.566 507.9 172.629L569.468 160.472C569.468 147.273 566.453 137.432 560.424 130.948C554.395 124.233 545.467 120.875 533.64 120.875C522.973 120.875 514.509 123.422 508.248 128.517C502.218 133.379 498.044 140.442 495.725 149.705L450.506 147.621C454.216 127.938 463.26 112.886 477.638 102.466C492.015 91.8142 510.683 86.4883 533.64 86.4883C560.076 86.4883 580.019 93.2035 593.469 106.634C607.151 119.833 613.991 138.821 613.991 163.598V230.983C613.991 235.846 614.803 239.203 616.426 241.056C618.281 242.908 620.948 243.834 624.427 243.834H630.34V276.137C628.949 276.6 626.63 276.948 623.383 277.179C620.369 277.411 617.238 277.527 613.991 277.527C606.339 277.527 599.498 276.369 593.469 274.053C587.44 271.506 582.802 267.222 579.555 261.201C576.309 254.949 574.685 246.497 574.685 235.846L578.512 238.624C576.656 246.729 572.598 254.023 566.337 260.507C560.308 266.759 552.655 271.622 543.38 275.095C534.104 278.569 523.669 280.305 512.074 280.305ZM521.118 248.002C531.089 248.002 539.669 246.034 546.858 242.098C554.047 238.161 559.612 232.719 563.554 225.773C567.497 218.826 569.468 210.605 569.468 201.111V190.691L521.466 200.417C511.494 202.501 504.305 205.627 499.9 209.795C495.725 213.731 493.638 218.941 493.638 225.425C493.638 232.604 495.957 238.161 500.595 242.098C505.465 246.034 512.306 248.002 521.118 248.002Z" fill="black"/>
<path d="M512.074 280.305C492.595 280.305 476.942 275.906 465.115 267.106C453.289 258.075 447.375 245.571 447.375 229.593C447.375 213.616 452.361 201.111 462.333 192.08C472.304 183.049 487.493 176.566 507.9 172.629L569.468 160.472C569.468 147.273 566.453 137.432 560.424 130.948C554.395 124.233 545.467 120.875 533.64 120.875C522.973 120.875 514.509 123.422 508.248 128.517C502.218 133.379 498.044 140.442 495.725 149.705L450.506 147.621C454.216 127.938 463.26 112.886 477.638 102.466C492.015 91.8142 510.683 86.4883 533.64 86.4883C560.076 86.4883 580.019 93.2035 593.469 106.634C607.151 119.833 613.991 138.821 613.991 163.598V230.983C613.991 235.846 614.803 239.203 616.426 241.056C618.281 242.908 620.948 243.834 624.427 243.834H630.34V276.137C628.949 276.6 626.63 276.948 623.383 277.179C620.369 277.411 617.238 277.527 613.991 277.527C606.339 277.527 599.498 276.369 593.469 274.053C587.44 271.506 582.802 267.222 579.555 261.201C576.309 254.949 574.685 246.497 574.685 235.846L578.512 238.624C576.656 246.729 572.598 254.023 566.337 260.507C560.308 266.759 552.655 271.622 543.38 275.095C534.104 278.569 523.669 280.305 512.074 280.305ZM521.118 248.002C531.089 248.002 539.669 246.034 546.858 242.098C554.047 238.161 559.612 232.719 563.554 225.773C567.497 218.826 569.468 210.605 569.468 201.111V190.691L521.466 200.417C511.494 202.501 504.305 205.627 499.9 209.795C495.725 213.731 493.638 218.941 493.638 225.425C493.638 232.604 495.957 238.161 500.595 242.098C505.465 246.034 512.306 248.002 521.118 248.002Z" fill="url(#paint2_linear_72_12328)"/>
<path d="M659.254 276.137V90.6564H700.995L702.734 142.063L698.908 141.368C701.691 123.538 706.909 110.686 714.561 102.813C722.445 94.7087 733.113 90.6564 746.562 90.6564H763.607V128.864H746.215C736.707 128.864 728.822 130.253 722.561 133.032C716.3 135.811 711.546 140.211 708.3 146.231C705.285 152.02 703.778 159.662 703.778 169.156V276.137H659.254Z" fill="black"/>
<path d="M659.254 276.137V90.6564H700.995L702.734 142.063L698.908 141.368C701.691 123.538 706.909 110.686 714.561 102.813C722.445 94.7087 733.113 90.6564 746.562 90.6564H763.607V128.864H746.215C736.707 128.864 728.822 130.253 722.561 133.032C716.3 135.811 711.546 140.211 708.3 146.231C705.285 152.02 703.778 159.662 703.778 169.156V276.137H659.254Z" fill="url(#paint3_linear_72_12328)"/>
<path d="M970.635 106.287L866.978 277.874H853.412L825.933 59.3955C824.773 50.5962 822.222 44.8072 818.28 42.0284C814.338 39.0181 810.628 37.3972 807.149 37.1656L808.541 30.2188C814.106 30.4504 820.831 30.6819 828.715 30.9135C836.6 31.145 844.6 31.2608 852.716 31.2608C861.528 31.2608 869.645 31.145 877.065 30.9135C884.486 30.6819 890.515 30.4504 895.153 30.2188L893.762 37.1656C886.341 37.6287 881.123 39.7128 878.109 43.4178C875.094 46.8912 874.051 54.5328 874.978 66.3424L893.414 226.815L885.414 234.109L967.852 97.6032L970.635 106.287ZM1092.38 82.3201C1098.64 70.2789 1101.89 61.1323 1102.12 54.8801C1102.35 48.6279 1100.03 44.2283 1095.16 41.6811C1090.29 39.1339 1083.22 37.6287 1073.94 37.1656L1075.68 30.2188C1079.16 30.4504 1083.45 30.6819 1088.55 30.9135C1093.89 30.9135 1099.22 31.0292 1104.55 31.2608C1110.12 31.2608 1114.99 31.2608 1119.16 31.2608C1124.73 31.2608 1129.48 31.145 1133.42 30.9135C1137.6 30.6819 1141.54 30.4504 1145.25 30.2188L1143.51 37.1656C1139.34 38.3234 1135.16 39.9444 1130.99 42.0284C1127.05 44.1125 1122.87 47.4701 1118.47 52.1014C1114.29 56.7326 1110 63.3321 1105.6 71.8999L997.418 277.874H983.853L952.199 59.3955C951.04 50.8278 948.953 45.0387 945.938 42.0284C942.923 39.0181 939.909 37.3972 936.894 37.1656L938.285 30.2188C943.387 30.4504 949.532 30.6819 956.721 30.9135C964.142 31.145 971.562 31.2608 978.983 31.2608C989.418 31.2608 999.042 31.145 1007.85 30.9135C1016.9 30.6819 1024.2 30.4504 1029.77 30.2188L1028.38 37.1656C1016.78 37.6287 1009.01 39.597 1005.07 43.0705C1001.13 46.5439 999.853 54.3012 1001.24 66.3424L1023.16 221.952L1015.16 228.899L1092.38 82.3201Z" fill="black"/>
<path d="M970.635 106.287L866.978 277.874H853.412L825.933 59.3955C824.773 50.5962 822.222 44.8072 818.28 42.0284C814.338 39.0181 810.628 37.3972 807.149 37.1656L808.541 30.2188C814.106 30.4504 820.831 30.6819 828.715 30.9135C836.6 31.145 844.6 31.2608 852.716 31.2608C861.528 31.2608 869.645 31.145 877.065 30.9135C884.486 30.6819 890.515 30.4504 895.153 30.2188L893.762 37.1656C886.341 37.6287 881.123 39.7128 878.109 43.4178C875.094 46.8912 874.051 54.5328 874.978 66.3424L893.414 226.815L885.414 234.109L967.852 97.6032L970.635 106.287ZM1092.38 82.3201C1098.64 70.2789 1101.89 61.1323 1102.12 54.8801C1102.35 48.6279 1100.03 44.2283 1095.16 41.6811C1090.29 39.1339 1083.22 37.6287 1073.94 37.1656L1075.68 30.2188C1079.16 30.4504 1083.45 30.6819 1088.55 30.9135C1093.89 30.9135 1099.22 31.0292 1104.55 31.2608C1110.12 31.2608 1114.99 31.2608 1119.16 31.2608C1124.73 31.2608 1129.48 31.145 1133.42 30.9135C1137.6 30.6819 1141.54 30.4504 1145.25 30.2188L1143.51 37.1656C1139.34 38.3234 1135.16 39.9444 1130.99 42.0284C1127.05 44.1125 1122.87 47.4701 1118.47 52.1014C1114.29 56.7326 1110 63.3321 1105.6 71.8999L997.418 277.874H983.853L952.199 59.3955C951.04 50.8278 948.953 45.0387 945.938 42.0284C942.923 39.0181 939.909 37.3972 936.894 37.1656L938.285 30.2188C943.387 30.4504 949.532 30.6819 956.721 30.9135C964.142 31.145 971.562 31.2608 978.983 31.2608C989.418 31.2608 999.042 31.145 1007.85 30.9135C1016.9 30.6819 1024.2 30.4504 1029.77 30.2188L1028.38 37.1656C1016.78 37.6287 1009.01 39.597 1005.07 43.0705C1001.13 46.5439 999.853 54.3012 1001.24 66.3424L1023.16 221.952L1015.16 228.899L1092.38 82.3201Z" fill="url(#paint4_linear_72_12328)"/>
<path d="M1144.05 265.022C1148.23 265.022 1152.98 262.591 1158.31 257.728C1163.65 252.634 1169.1 245.571 1174.66 236.54C1180.23 227.509 1185.56 216.742 1190.66 204.237C1195.76 191.733 1200.17 178.071 1203.88 163.251L1196.58 200.764C1189.85 220.447 1182.66 236.193 1175.01 248.002C1167.59 259.812 1159.71 268.264 1151.36 273.358C1143.24 278.453 1134.78 281 1125.96 281C1113.44 281 1104.17 277.179 1098.14 269.538C1092.11 261.665 1089.09 251.244 1089.09 238.277C1089.09 226.236 1091.06 213.616 1095.01 200.417C1098.95 186.986 1104.4 173.903 1111.36 161.167C1118.54 148.199 1126.66 136.621 1135.7 126.433C1144.75 116.012 1154.37 107.676 1164.58 101.424C1174.78 95.1718 1184.98 92.0457 1195.19 92.0457C1203.07 92.0457 1209.1 95.4034 1213.27 102.119C1217.45 108.602 1218.49 118.56 1216.4 131.99L1212.58 134.074C1214.2 124.349 1213.74 116.707 1211.19 111.15C1208.87 105.592 1204.92 102.813 1199.36 102.813C1194.03 102.813 1188.34 105.592 1182.32 111.15C1176.52 116.707 1170.72 124.233 1164.92 133.727C1159.13 143.221 1153.79 153.988 1148.92 166.03C1144.28 178.071 1140.57 190.575 1137.79 203.543C1135.01 216.51 1133.62 229.13 1133.62 241.403C1133.62 249.971 1134.43 256.107 1136.05 259.812C1137.91 263.286 1140.57 265.022 1144.05 265.022ZM1222.32 96.9085C1230.67 96.677 1238.43 96.2138 1245.62 95.5191C1253.04 94.8245 1260.12 93.6667 1266.84 92.0457L1221.97 246.266C1221.04 249.045 1220.35 251.939 1219.88 254.949C1219.65 257.728 1219.88 260.159 1220.58 262.244C1221.51 264.096 1223.48 265.022 1226.49 265.022C1230.2 265.022 1234.03 263.054 1237.97 259.117C1241.91 255.181 1245.97 247.192 1250.14 235.151L1255.36 219.52H1261.97L1253.27 244.876C1250.03 254.37 1245.97 261.78 1241.1 267.106C1236.23 272.201 1231.01 275.79 1225.45 277.874C1220.11 279.958 1214.78 281 1209.45 281C1198.32 281 1190.43 277.527 1185.79 270.58C1182.78 265.485 1181.62 259.233 1182.32 251.823C1183.01 244.413 1184.52 236.424 1186.84 227.857L1222.32 96.9085Z" fill="black"/>
<path d="M1144.05 265.022C1148.23 265.022 1152.98 262.591 1158.31 257.728C1163.65 252.634 1169.1 245.571 1174.66 236.54C1180.23 227.509 1185.56 216.742 1190.66 204.237C1195.76 191.733 1200.17 178.071 1203.88 163.251L1196.58 200.764C1189.85 220.447 1182.66 236.193 1175.01 248.002C1167.59 259.812 1159.71 268.264 1151.36 273.358C1143.24 278.453 1134.78 281 1125.96 281C1113.44 281 1104.17 277.179 1098.14 269.538C1092.11 261.665 1089.09 251.244 1089.09 238.277C1089.09 226.236 1091.06 213.616 1095.01 200.417C1098.95 186.986 1104.4 173.903 1111.36 161.167C1118.54 148.199 1126.66 136.621 1135.7 126.433C1144.75 116.012 1154.37 107.676 1164.58 101.424C1174.78 95.1718 1184.98 92.0457 1195.19 92.0457C1203.07 92.0457 1209.1 95.4034 1213.27 102.119C1217.45 108.602 1218.49 118.56 1216.4 131.99L1212.58 134.074C1214.2 124.349 1213.74 116.707 1211.19 111.15C1208.87 105.592 1204.92 102.813 1199.36 102.813C1194.03 102.813 1188.34 105.592 1182.32 111.15C1176.52 116.707 1170.72 124.233 1164.92 133.727C1159.13 143.221 1153.79 153.988 1148.92 166.03C1144.28 178.071 1140.57 190.575 1137.79 203.543C1135.01 216.51 1133.62 229.13 1133.62 241.403C1133.62 249.971 1134.43 256.107 1136.05 259.812C1137.91 263.286 1140.57 265.022 1144.05 265.022ZM1222.32 96.9085C1230.67 96.677 1238.43 96.2138 1245.62 95.5191C1253.04 94.8245 1260.12 93.6667 1266.84 92.0457L1221.97 246.266C1221.04 249.045 1220.35 251.939 1219.88 254.949C1219.65 257.728 1219.88 260.159 1220.58 262.244C1221.51 264.096 1223.48 265.022 1226.49 265.022C1230.2 265.022 1234.03 263.054 1237.97 259.117C1241.91 255.181 1245.97 247.192 1250.14 235.151L1255.36 219.52H1261.97L1253.27 244.876C1250.03 254.37 1245.97 261.78 1241.1 267.106C1236.23 272.201 1231.01 275.79 1225.45 277.874C1220.11 279.958 1214.78 281 1209.45 281C1198.32 281 1190.43 277.527 1185.79 270.58C1182.78 265.485 1181.62 259.233 1182.32 251.823C1183.01 244.413 1184.52 236.424 1186.84 227.857L1222.32 96.9085Z" fill="url(#paint5_linear_72_12328)"/>
<path d="M1315.84 276.137H1273.06L1341.93 44.4598C1344.25 36.5867 1343.9 30.7977 1340.89 27.0927C1338.1 23.3877 1331.03 21.5352 1319.67 21.5352L1322.1 14.241C1337.41 14.0095 1350.97 12.7359 1362.8 10.4203C1374.86 7.87309 1386.22 4.39967 1396.89 0L1315.84 276.137ZM1408.37 251.129C1407.44 256.454 1407.44 260.159 1408.37 262.244C1409.3 264.328 1411.27 265.37 1414.28 265.37C1417.99 265.37 1421.7 263.401 1425.41 259.465C1429.12 255.297 1433.07 247.308 1437.24 235.498L1442.46 219.868H1449.07L1440.72 245.224C1437.47 254.718 1433.3 262.012 1428.2 267.106C1423.33 272.201 1417.88 275.79 1411.85 277.874C1405.82 279.958 1399.79 281 1393.76 281C1383.56 281 1376.02 277.874 1371.15 271.622C1366.28 265.37 1365.24 255.876 1368.02 243.14L1374.28 215.352C1377.29 202.616 1376.37 193.354 1371.5 187.565C1366.63 181.776 1356.08 178.187 1339.84 176.797V175.408C1349.58 174.713 1359.32 174.713 1369.06 175.408C1378.8 176.103 1387.5 178.187 1395.15 181.66C1402.8 184.902 1408.48 189.765 1412.19 196.248C1415.9 202.732 1416.6 211.3 1414.28 221.952L1408.37 251.129ZM1429.59 98.9926C1426.57 98.9926 1423.91 99.4557 1421.59 100.382C1419.5 101.308 1417.41 102.582 1415.33 104.203C1411.15 107.676 1407.67 112.423 1404.89 118.444C1402.11 124.233 1399.32 130.485 1396.54 137.2C1393.99 143.916 1390.63 150.283 1386.45 156.304C1382.51 162.325 1377.18 167.303 1370.45 171.24C1363.73 174.945 1354.92 176.682 1344.02 176.45L1340.54 176.797L1341.24 172.977C1351.9 172.282 1360.37 169.966 1366.63 166.03C1373.12 162.093 1378.22 157.23 1381.93 151.441C1385.64 145.421 1388.66 139.169 1390.98 132.685C1393.53 126.201 1396.19 120.065 1398.98 114.276C1401.76 108.487 1405.47 103.74 1410.11 100.035C1414.05 96.7927 1417.88 94.7087 1421.59 93.7824C1425.3 92.6246 1428.66 92.0457 1431.67 92.0457C1441.88 92.0457 1449.18 94.8245 1453.59 100.382C1457.99 105.939 1460.08 112.539 1459.85 120.18C1459.85 124.812 1458.81 129.211 1456.72 133.379C1454.63 137.548 1451.62 141.021 1447.67 143.8C1443.73 146.347 1439.09 147.621 1433.76 147.621C1427.04 147.621 1422.05 145.768 1418.8 142.063C1415.79 138.126 1414.28 133.727 1414.28 128.864C1414.51 123.307 1416.48 118.096 1420.19 113.234C1424.14 108.139 1428.54 103.971 1433.41 100.729C1432.95 100.266 1432.37 99.9188 1431.67 99.6873C1430.98 99.2241 1430.28 98.9926 1429.59 98.9926Z" fill="black"/>
<path d="M1315.84 276.137H1273.06L1341.93 44.4598C1344.25 36.5867 1343.9 30.7977 1340.89 27.0927C1338.1 23.3877 1331.03 21.5352 1319.67 21.5352L1322.1 14.241C1337.41 14.0095 1350.97 12.7359 1362.8 10.4203C1374.86 7.87309 1386.22 4.39967 1396.89 0L1315.84 276.137ZM1408.37 251.129C1407.44 256.454 1407.44 260.159 1408.37 262.244C1409.3 264.328 1411.27 265.37 1414.28 265.37C1417.99 265.37 1421.7 263.401 1425.41 259.465C1429.12 255.297 1433.07 247.308 1437.24 235.498L1442.46 219.868H1449.07L1440.72 245.224C1437.47 254.718 1433.3 262.012 1428.2 267.106C1423.33 272.201 1417.88 275.79 1411.85 277.874C1405.82 279.958 1399.79 281 1393.76 281C1383.56 281 1376.02 277.874 1371.15 271.622C1366.28 265.37 1365.24 255.876 1368.02 243.14L1374.28 215.352C1377.29 202.616 1376.37 193.354 1371.5 187.565C1366.63 181.776 1356.08 178.187 1339.84 176.797V175.408C1349.58 174.713 1359.32 174.713 1369.06 175.408C1378.8 176.103 1387.5 178.187 1395.15 181.66C1402.8 184.902 1408.48 189.765 1412.19 196.248C1415.9 202.732 1416.6 211.3 1414.28 221.952L1408.37 251.129ZM1429.59 98.9926C1426.57 98.9926 1423.91 99.4557 1421.59 100.382C1419.5 101.308 1417.41 102.582 1415.33 104.203C1411.15 107.676 1407.67 112.423 1404.89 118.444C1402.11 124.233 1399.32 130.485 1396.54 137.2C1393.99 143.916 1390.63 150.283 1386.45 156.304C1382.51 162.325 1377.18 167.303 1370.45 171.24C1363.73 174.945 1354.92 176.682 1344.02 176.45L1340.54 176.797L1341.24 172.977C1351.9 172.282 1360.37 169.966 1366.63 166.03C1373.12 162.093 1378.22 157.23 1381.93 151.441C1385.64 145.421 1388.66 139.169 1390.98 132.685C1393.53 126.201 1396.19 120.065 1398.98 114.276C1401.76 108.487 1405.47 103.74 1410.11 100.035C1414.05 96.7927 1417.88 94.7087 1421.59 93.7824C1425.3 92.6246 1428.66 92.0457 1431.67 92.0457C1441.88 92.0457 1449.18 94.8245 1453.59 100.382C1457.99 105.939 1460.08 112.539 1459.85 120.18C1459.85 124.812 1458.81 129.211 1456.72 133.379C1454.63 137.548 1451.62 141.021 1447.67 143.8C1443.73 146.347 1439.09 147.621 1433.76 147.621C1427.04 147.621 1422.05 145.768 1418.8 142.063C1415.79 138.126 1414.28 133.727 1414.28 128.864C1414.51 123.307 1416.48 118.096 1420.19 113.234C1424.14 108.139 1428.54 103.971 1433.41 100.729C1432.95 100.266 1432.37 99.9188 1431.67 99.6873C1430.98 99.2241 1430.28 98.9926 1429.59 98.9926Z" fill="url(#paint6_linear_72_12328)"/>
<path d="M1506.13 199.722C1517.02 195.554 1527 191.27 1536.04 186.87C1545.32 182.239 1553.08 177.376 1559.35 172.282C1567.93 164.64 1574.88 155.725 1580.22 145.536C1585.55 135.116 1588.22 123.77 1588.22 111.497C1588.22 106.171 1587.75 102.698 1586.82 101.077C1585.9 99.4557 1584.51 98.6452 1582.65 98.6452C1577.32 98.6452 1571.52 101.192 1565.26 106.287C1559 111.381 1552.85 118.444 1546.82 127.475C1540.79 136.274 1535.23 146.231 1530.13 157.346C1525.26 168.461 1521.31 180.155 1518.3 192.428C1515.29 204.7 1513.78 216.857 1513.78 228.899C1513.78 241.171 1516.1 249.855 1520.73 254.949C1525.6 259.812 1531.98 262.244 1539.87 262.244C1546.59 262.244 1554.59 260.044 1563.87 255.644C1573.14 251.244 1582.3 243.255 1591.35 231.677L1596.91 234.456C1592.27 242.098 1586.13 249.508 1578.48 256.686C1570.82 263.864 1562.01 269.769 1552.04 274.401C1542.3 278.8 1531.52 281 1519.69 281C1509.95 281 1501.14 279.148 1493.26 275.443C1485.37 271.738 1479.23 266.296 1474.82 259.117C1470.41 251.707 1468.21 242.677 1468.21 232.025C1468.21 220.678 1470.18 208.637 1474.12 195.901C1478.07 182.934 1483.63 170.314 1490.82 158.041C1498.24 145.768 1506.94 134.653 1516.91 124.696C1527.11 114.739 1538.36 106.866 1550.65 101.077C1562.94 95.056 1576.16 92.0457 1590.3 92.0457C1599.58 92.0457 1607.35 94.2456 1613.61 98.6452C1619.87 102.813 1623 109.297 1623 118.096C1623 127.127 1620.45 135.579 1615.35 143.452C1610.25 151.326 1603.29 158.504 1594.48 164.988C1585.9 171.471 1576.39 177.26 1565.95 182.355C1555.75 187.449 1545.43 191.849 1535 195.554C1524.56 199.259 1514.82 202.269 1505.78 204.585L1506.13 199.722Z" fill="black"/>
<path d="M1506.13 199.722C1517.02 195.554 1527 191.27 1536.04 186.87C1545.32 182.239 1553.08 177.376 1559.35 172.282C1567.93 164.64 1574.88 155.725 1580.22 145.536C1585.55 135.116 1588.22 123.77 1588.22 111.497C1588.22 106.171 1587.75 102.698 1586.82 101.077C1585.9 99.4557 1584.51 98.6452 1582.65 98.6452C1577.32 98.6452 1571.52 101.192 1565.26 106.287C1559 111.381 1552.85 118.444 1546.82 127.475C1540.79 136.274 1535.23 146.231 1530.13 157.346C1525.26 168.461 1521.31 180.155 1518.3 192.428C1515.29 204.7 1513.78 216.857 1513.78 228.899C1513.78 241.171 1516.1 249.855 1520.73 254.949C1525.6 259.812 1531.98 262.244 1539.87 262.244C1546.59 262.244 1554.59 260.044 1563.87 255.644C1573.14 251.244 1582.3 243.255 1591.35 231.677L1596.91 234.456C1592.27 242.098 1586.13 249.508 1578.48 256.686C1570.82 263.864 1562.01 269.769 1552.04 274.401C1542.3 278.8 1531.52 281 1519.69 281C1509.95 281 1501.14 279.148 1493.26 275.443C1485.37 271.738 1479.23 266.296 1474.82 259.117C1470.41 251.707 1468.21 242.677 1468.21 232.025C1468.21 220.678 1470.18 208.637 1474.12 195.901C1478.07 182.934 1483.63 170.314 1490.82 158.041C1498.24 145.768 1506.94 134.653 1516.91 124.696C1527.11 114.739 1538.36 106.866 1550.65 101.077C1562.94 95.056 1576.16 92.0457 1590.3 92.0457C1599.58 92.0457 1607.35 94.2456 1613.61 98.6452C1619.87 102.813 1623 109.297 1623 118.096C1623 127.127 1620.45 135.579 1615.35 143.452C1610.25 151.326 1603.29 158.504 1594.48 164.988C1585.9 171.471 1576.39 177.26 1565.95 182.355C1555.75 187.449 1545.43 191.849 1535 195.554C1524.56 199.259 1514.82 202.269 1505.78 204.585L1506.13 199.722Z" fill="url(#paint7_linear_72_12328)"/>
<defs>
<linearGradient id="paint0_linear_72_12328" x1="811.5" y1="0" x2="811.5" y2="281" gradientUnits="userSpaceOnUse">
<stop stop-color="#2AA7FF"/>
<stop offset="1" stop-color="#F5F5F5"/>
</linearGradient>
<linearGradient id="paint1_linear_72_12328" x1="811.5" y1="0" x2="811.5" y2="281" gradientUnits="userSpaceOnUse">
<stop stop-color="#2AA7FF"/>
<stop offset="1" stop-color="#F5F5F5"/>
</linearGradient>
<linearGradient id="paint2_linear_72_12328" x1="811.5" y1="0" x2="811.5" y2="281" gradientUnits="userSpaceOnUse">
<stop stop-color="#2AA7FF"/>
<stop offset="1" stop-color="#F5F5F5"/>
</linearGradient>
<linearGradient id="paint3_linear_72_12328" x1="811.5" y1="0" x2="811.5" y2="281" gradientUnits="userSpaceOnUse">
<stop stop-color="#2AA7FF"/>
<stop offset="1" stop-color="#F5F5F5"/>
</linearGradient>
<linearGradient id="paint4_linear_72_12328" x1="811.5" y1="0" x2="811.5" y2="281" gradientUnits="userSpaceOnUse">
<stop stop-color="#2AA7FF"/>
<stop offset="1" stop-color="#F5F5F5"/>
</linearGradient>
<linearGradient id="paint5_linear_72_12328" x1="811.5" y1="0" x2="811.5" y2="281" gradientUnits="userSpaceOnUse">
<stop stop-color="#2AA7FF"/>
<stop offset="1" stop-color="#F5F5F5"/>
</linearGradient>
<linearGradient id="paint6_linear_72_12328" x1="811.5" y1="0" x2="811.5" y2="281" gradientUnits="userSpaceOnUse">
<stop stop-color="#2AA7FF"/>
<stop offset="1" stop-color="#F5F5F5"/>
</linearGradient>
<linearGradient id="paint7_linear_72_12328" x1="811.5" y1="0" x2="811.5" y2="281" gradientUnits="userSpaceOnUse">
<stop stop-color="#2AA7FF"/>
<stop offset="1" stop-color="#F5F5F5"/>
</linearGradient>
</defs>
</svg>
